<?xml version="1.0" encoding="UTF-8" standalone="no"?>
<svg
   xmlns:dc="http://purl.org/dc/elements/1.1/"
   xmlns:cc="http://creativecommons.org/ns#"
   xmlns:rdf="http://www.w3.org/1999/02/22-rdf-syntax-ns#"
   xmlns:svg="http://www.w3.org/2000/svg"
   xmlns="http://www.w3.org/2000/svg"
   viewBox="0 0 657.05334 165.2"
   height="165.2"
   width="657.05334"
   xml:space="preserve"
   id="svg2"
   version="1.1"><metadata
     id="metadata8"><rdf:RDF><cc:Work
         rdf:about=""><dc:format>image/svg+xml</dc:format><dc:type
           rdf:resource="http://purl.org/dc/dcmitype/StillImage" /></cc:Work></rdf:RDF></metadata><defs
     id="defs6" /><g
     transform="matrix(1.3333333,0,0,-1.3333333,0,165.2)"
     id="g10"><g
       transform="scale(0.1)"
       id="g12"><path
         id="path14"
         style="fill:#2b69bc;fill-opacity:1;fill-rule:nonzero;stroke:none"
         d="m 4683.22,603.656 163.67,258.711 h 56.32 L 4707.86,563.18 Z m -5.28,-288.633 28.16,42.243 221.75,-336.1566 h -59.83 z m -102.07,146.079 -263.99,401.265 h 59.83 L 4632.19,461.102 4343.55,21.1094 h -56.31 z m -586.07,158.394 153.12,244.637 h 72.16 l -193.6,-297.434 z m -5.28,-320.308 35.2,56.316 220,-334.3946 h -75.69 z m -114.39,163.675 -262.24,401.27 h 73.92 L 3942.29,462.863 3653.65,21.1094 h -70.4 z m -466.39,404.785 h 89.76 V 21.1094 h -89.76 z m -21.12,272.792 c 0,42.24 31.68,66.88 68.64,66.88 36.95,0 68.63,-24.64 68.63,-66.88 0,-38.71 -31.68,-66.87 -68.63,-66.87 -36.96,0 -68.64,28.16 -68.64,66.87 z M 2919.76,271.027 v 506.864 h -130.24 v 86.242 l 133.75,7.035 14.08,242.872 h 95.04 V 871.168 h 237.59 V 777.891 H 3032.39 V 267.508 c 0,-107.36 29.91,-172.4767 137.28,-172.4767 31.68,0 72.16,12.3207 102.07,24.6407 l 24.65,-87.9923 C 3247.1,14.0703 3190.78,0 3146.79,0 2974.32,0 2919.76,109.109 2919.76,271.027 Z m -290.4,246.391 c 0,172.477 -79.19,267.516 -212.95,267.516 -121.44,0 -230.56,-98.563 -248.15,-267.516 z m -600.14,-70.395 c 0,278.071 186.55,450.547 383.67,450.547 218.23,0 341.43,-156.636 341.43,-401.269 0,-29.918 -3.52,-59.84 -7.04,-80.957 h -577.27 c 8.8,-183.035 121.44,-302.715 285.12,-302.715 82.71,0 149.59,26.402 212.95,68.641 l 51.04,-93.2817 C 2645.2,40.4688 2555.44,0 2437.53,0 2210.49,0 2029.22,167.191 2029.22,447.023 Z m -832.46,432.95 h 140.8 l 14.08,-119.68 h 5.28 c 79.2,77.437 167.19,140.797 285.11,140.797 183.03,0 263.99,-119.68 263.99,-337.91 V 21.1094 H 1733.55 V 540.301 c 0,151.355 -44,212.953 -147.84,212.953 -82.72,0 -139.04,-40.481 -216.47,-119.68 V 21.1094 H 1196.76 Z M 841.254,1151 c 0,54.56 42.238,88 96.797,88 54.554,0 96.799,-33.44 96.799,-88 0,-51.04 -42.245,-88 -96.799,-88 -54.559,0 -96.797,36.96 -96.797,88 z M 835.973,885.25 H 1038.37 V 21.1094 H 835.973 Z M 0,455.82 c 0,288.633 207.672,455.825 443.508,455.825 109.113,0 190.07,-40.477 255.187,-96.793 L 587.82,667.02 c -43.996,36.957 -82.718,58.074 -131.996,58.074 -131.996,0 -219.996,-107.36 -219.996,-269.274 0,-163.675 89.762,-269.269 212.957,-269.269 63.36,0 121.434,31.679 168.953,70.398 L 709.258,105.59 C 626.539,31.6797 520.941,0 424.145,0 184.797,0 0,167.191 0,455.82" /></g></g></svg>